#!OML:ASF Y:\EmotionMaleHayes\Project 1\Capture day 1\Session 1\Male1.ASF
:FULLY-SPECIFIED
:DEGREES
50
root -9.65557 15.6478 -1.1413 -23.4942 82.0679 -23.5429
lowerback 17.7168 1.43977 -0.241981
upperback 3.49782 2.23055 2.66902
thorax -6.28208 1.19222 2.47041
lowerneck -30.6142 3.96404 4.22655
upperneck 12.7006 4.42155 -3.67682
head 9.03009 1.87174 -1.25068
rclavicle -2.48481e-014 1.98785e-015
rhumerus -54.0658 17.6061 -90.6473
rradius 93.9449
rwrist -18.96
rhand -29.134 -31.5246
rfingers 7.12502
rthumb -2.48116 -61.4899
lclavicle -2.48481e-014 1.98785e-015
lhumerus -56.3627 -18.0969 103.089
lradius 93.8415
lwrist 13.0783
lhand -31.7069 -26.3061
lfingers 7.12502
lthumb -4.96576 3.61576
rfemur -21.005 8.88246 31.6728
rtibia 47.0815
rfoot -26.2799 -5.37594
rtoes 2.99228
lfemur 1.31916 14.9769 -8.4478
ltibia 72.1737
lfoot 177.375 -11.6135
ltoes -6.33781
51
root -9.19064 15.6444 -1.16197 -25.9685 80.9302 -25.9515
lowerback 17.3231 1.70232 0.641218
upperback 3.82551 2.74201 2.7851
thorax -5.70977 1.43209 1.98892
lowerneck -30.3583 3.91546 4.32555
upperneck 12.4102 4.34911 -3.80871
head 8.89152 1.83314 -1.32702
rclavicle 1.19271e-015 -5.56597e-015
rhumerus -50.0179 18.5868 -90.4959
rradius 93.2757
rwrist -19.0132
rhand -30.1614 -31.6611
rfingers 7.12502
rthumb -3.47329 -61.6125
lclavicle 1.19271e-015 -5.56597e-015
lhumerus -57.904 -16.4628 102.363
lradius 92.527
lwrist 15.108
lhand -32.8164 -26.3432
lfingers 7.12502
lthumb -6.03695 3.55076
rfemur -18.5435 9.8212 32.8105
rtibia 46.9545
rfoot -27.9701 -5.51498
rtoes 2.10158
lfemur -1.79639 16.3805 -7.64526
ltibia 70.0068
lfoot 176.483 -10.8647
ltoes -6.89433
52
root -8.80429 15.6453 -1.16642 -34.534 81.3137 -34.7846
lowerback 17.7548 1.33502 1.78527
upperback 3.69778 2.51026 3.03017
thorax -6.03515 1.30558 1.64124
lowerneck -30.1743 3.83925 4.40934
upperneck 12.3172 4.25876 -4.00312
head 8.83458 1.77479 -1.4246
rclavicle -1.42131e-014 2.38542e-015
rhumerus -46.6795 19.49 -90.3984
rradius 93.4558
rwrist -18.9135
rhand -30.0149 -31.1192
rfingers 7.12502
rthumb -3.33182 -61.0729
lclavicle -1.42131e-014 2.38542e-015
lhumerus -59.9712 -14.9449 101.637
lradius 92.0424
lwrist 17.2328
lhand -33.3525 -26.0774
lfingers 7.12502
lthumb -6.55456 3.80114
rfemur -16.9303 9.15109 33.955
rtibia 46.7476
rfoot -29.5235 -5.93118
rtoes 2.32499
lfemur -6.6777 15.7916 -7.06061
ltibia 67.6415
lfoot 176.226 -9.24709
ltoes -8.881
53
root -8.38139 15.6666 -1.1892 -39.1355 81.1138 -39.5857
lowerback 17.8426 1.25509 2.82742
upperback 3.66111 2.61507 3.11647
thorax -6.08258 1.34191 1.1172
lowerneck -30.0927 3.74336 4.49319
upperneck 12.3077 4.15037 -4.24912
head 8.82308 1.70015 -1.54218
rclavicle -1.63997e-014 -3.18055e-014
rhumerus -43.4846 19.8247 -90.0978
rradius 93.8084
rwrist -17.715
rhand -29.9194 -30.114
rfingers 7.12502
rthumb -3.23965 -60.0691
lclavicle -1.63997e-014 -3.18055e-014
lhumerus -62.3436 -13.8315 100.958
lradius 92.2715
lwrist 18.9316
lhand -33.5899 -28.0249
lfingers 7.12502
lthumb -6.78365 1.8464
rfemur -14.9432 8.76591 34.6546
rtibia 46.0238
rfoot -30.7327 -5.79723
rtoes 2.66788
lfemur -10.9552 15.7789 -6.89335
ltibia 66.136
lfoot 175.506 -8.20814
ltoes -8.47164
54
root -7.95125 15.7063 -1.2163 -40.4878 81.0878 -41.2756
lowerback 17.7219 1.34717 3.40177
upperback 3.57127 2.83065 3.04549
thorax -6.08324 1.43451 0.670896
lowerneck -29.993 3.5609 4.56683
upperneck 12.2837 3.9218 -4.45288
head 8.79639 1.57423 -1.66257
rclavicle -2.00773e-014 -1.19271e-014
rhumerus -40.2252 19.5633 -89.6407
rradius 93.7234
rwrist -15.5617
rhand -29.9274 -27.9126
rfingers 7.12502
rthumb -3.24734 -57.8677
lclavicle -2.00773e-014 -1.19271e-014
lhumerus -64.8938 -13.357 100.482
lradius 92.9347
lwrist 20.3707
lhand -33.4481 -27.5685
lfingers 7.12502
lthumb -6.64683 2.30716
rfemur -12.971 8.45581 34.7106
rtibia 45.0151
rfoot -31.7146 -5.5589
rtoes 2.72405
lfemur -15.2432 15.72 -7.44973
ltibia 65.3999
lfoot 175.028 -7.42846
ltoes -6.52425
55
root -7.50145 15.7671 -1.25673 -42.2943 81.1779 -43.3015
lowerback 17.6177 1.40594 4.1063
upperback 3.46602 3.02503 2.94508
thorax -6.09621 1.51345 0.125641
lowerneck -29.8562 3.25584 4.48726
upperneck 12.296 3.54761 -4.44212
head 8.76092 1.39737 -1.70657
rclavicle -1.66979e-014 -2.90226e-014
rhumerus -37.4419 19.0407 -89.2648
rradius 93.9902
rwrist -13.2708
rhand -28.4042 -26.2032
rfingers 7.12502
rthumb -1.77633 -56.1755
lclavicle -1.66979e-014 -2.90226e-014
lhumerus -67.5129 -13.2503 100.272
lradius 93.6884
lwrist 21.652
lhand -33.5266 -28.6092
lfingers 7.12502
lthumb -6.72257 1.26413
rfemur -10.37 8.01736 34.6761
rtibia 43.3208
rfoot -32.4582 -5.32628
rtoes 3.4054
lfemur -19.1157 15.32 -8.12224
ltibia 65.5372
lfoot 174.601 -6.90339
ltoes -4.33045
56
root -7.05403 15.8285 -1.29866 -39.9474 80.2767 -41.4272
lowerback 17.4381 1.92492 4.62885
upperback 3.17953 3.79236 2.95588
thorax -6.25536 1.86477 -0.323207
lowerneck -29.7932 2.90606 4.24742
upperneck 12.5659 3.15928 -4.33931
head 8.82242 1.21266 -1.69536
rclavicle 2.40529e-014 -1.15295e-014
rhumerus -35.2839 18.4815 -89.0443
rradius 94.7795
rwrist -11.5349
rhand -27.8612 -25.3961
rfingers 7.12502
rthumb -1.25181 -55.3722
lclavicle 2.40529e-014 -1.15295e-014
lhumerus -70.2002 -13.1743 100.251
lradius 94.3065
lwrist 21.9763
lhand -33.4236 -28.6649
lfingers 7.12502
lthumb -6.62314 1.2115
rfemur -7.85124 8.72239 34.9625
rtibia 41.3868
rfoot -32.6544 -4.83542
rtoes 4.08708
lfemur -22.8415 16.1805 -8.47599
ltibia 66.2001
lfoot 174.329 -6.98355
ltoes -0.847712
